<svg width="1364" height="325" viewBox="0 0 1364 325" fill="none" xmlns="http://www.w3.org/2000/svg">
<path d="M185.841 31V195.654L60.9558 271.685L141.239 324.471L238.372 261.999L258.75 248.486C272.021 239.686 280 224.822 280 208.899V31L185.841 31Z" fill="url(#paint0_linear_2058_8)"/>
<rect x="2.47778" y="31" width="277.522" height="92.0123" fill="url(#paint1_linear_2058_8)"/>
<path d="M96.6369 31L96.6369 195.654L138.265 224.71L60.9555 271.685L44.1059 261.999L20.4777 245.655C7.65332 236.784 -0.000225234 222.184 -0.000225234 206.59V31L96.6369 31Z" fill="url(#paint2_linear_2058_8)"/>
<path d="M463.68 235C455.467 236.54 447.4 237.2 439.48 236.98C431.633 236.833 424.593 235.477 418.36 232.91C412.2 230.27 407.507 226.053 404.28 220.26C401.347 214.833 399.807 209.333 399.66 203.76C399.513 198.113 399.44 191.733 399.44 184.62V83.2H429.36V182.86C429.36 187.48 429.397 191.66 429.47 195.4C429.617 199.067 430.387 202 431.78 204.2C434.42 208.38 438.637 210.653 444.43 211.02C450.223 211.387 456.64 211.093 463.68 210.14V235ZM379.2 139.3V116.2H463.68V139.3H379.2ZM526.169 238.3C514.215 238.3 503.729 235.623 494.709 230.27C485.689 224.917 478.649 217.547 473.589 208.16C468.602 198.7 466.109 187.847 466.109 175.6C466.109 163.207 468.675 152.317 473.809 142.93C478.942 133.47 486.019 126.1 495.039 120.82C504.059 115.54 514.435 112.9 526.169 112.9C538.122 112.9 548.609 115.577 557.629 120.93C566.722 126.283 573.799 133.69 578.859 143.15C583.919 152.537 586.449 163.353 586.449 175.6C586.449 187.92 583.882 198.81 578.749 208.27C573.689 217.657 566.612 225.027 557.519 230.38C548.499 235.66 538.049 238.3 526.169 238.3ZM526.169 210.36C535.775 210.36 542.925 207.133 547.619 200.68C552.385 194.153 554.769 185.793 554.769 175.6C554.769 165.04 552.349 156.607 547.509 150.3C542.742 143.993 535.629 140.84 526.169 140.84C519.642 140.84 514.289 142.307 510.109 145.24C505.929 148.173 502.812 152.243 500.759 157.45C498.779 162.657 497.789 168.707 497.789 175.6C497.789 186.233 500.172 194.703 504.939 201.01C509.779 207.243 516.855 210.36 526.169 210.36ZM643.858 238.52C634.545 238.52 626.955 236.943 621.088 233.79C615.222 230.637 610.638 226.64 607.338 221.8C604.112 216.96 601.802 211.937 600.408 206.73C599.015 201.45 598.172 196.647 597.878 192.32C597.585 187.993 597.438 184.84 597.438 182.86V116.2H627.798V172.3C627.798 175.013 627.945 178.497 628.238 182.75C628.532 186.93 629.448 191.147 630.988 195.4C632.528 199.653 635.022 203.21 638.468 206.07C641.988 208.93 646.938 210.36 653.318 210.36C655.885 210.36 658.635 209.957 661.568 209.15C664.502 208.343 667.252 206.803 669.818 204.53C672.385 202.183 674.475 198.773 676.088 194.3C677.775 189.753 678.618 183.813 678.618 176.48L695.778 184.62C695.778 194.007 693.872 202.807 690.058 211.02C686.245 219.233 680.488 225.87 672.788 230.93C665.162 235.99 655.518 238.52 643.858 238.52ZM682.358 235V195.62H678.618V116.2H708.758V235H682.358ZM780.862 238.3C768.542 238.3 757.982 235.55 749.182 230.05C740.382 224.55 733.635 217.07 728.942 207.61C724.248 198.15 721.902 187.48 721.902 175.6C721.902 163.573 724.322 152.83 729.162 143.37C734.075 133.91 740.968 126.467 749.842 121.04C758.715 115.613 769.202 112.9 781.302 112.9C795.308 112.9 807.042 116.457 816.502 123.57C826.035 130.61 832.122 140.253 834.762 152.5L804.842 160.42C803.082 154.26 800.002 149.457 795.602 146.01C791.275 142.563 786.362 140.84 780.862 140.84C774.555 140.84 769.385 142.38 765.352 145.46C761.318 148.467 758.348 152.61 756.442 157.89C754.535 163.097 753.582 169 753.582 175.6C753.582 185.94 755.855 194.337 760.402 200.79C765.022 207.17 771.842 210.36 780.862 210.36C787.608 210.36 792.742 208.82 796.262 205.74C799.782 202.66 802.422 198.26 804.182 192.54L834.762 198.92C831.388 211.533 825.008 221.25 815.622 228.07C806.235 234.89 794.648 238.3 780.862 238.3ZM926.723 235V178.9C926.723 176.187 926.577 172.74 926.283 168.56C925.99 164.307 925.073 160.053 923.533 155.8C921.993 151.547 919.463 147.99 915.943 145.13C912.497 142.27 907.583 140.84 901.203 140.84C898.637 140.84 895.887 141.243 892.953 142.05C890.02 142.857 887.27 144.433 884.703 146.78C882.137 149.053 880.01 152.427 878.323 156.9C876.71 161.373 875.903 167.313 875.903 174.72L858.743 166.58C858.743 157.193 860.65 148.393 864.463 140.18C868.277 131.967 873.997 125.33 881.623 120.27C889.323 115.21 899.003 112.68 910.663 112.68C919.977 112.68 927.567 114.257 933.433 117.41C939.3 120.563 943.847 124.56 947.073 129.4C950.373 134.24 952.72 139.3 954.113 144.58C955.507 149.787 956.35 154.553 956.643 158.88C956.937 163.207 957.083 166.36 957.083 168.34V235H926.723ZM845.543 235V76.6H872.163V158H875.903V235H845.543ZM1032.93 238.3C1021.12 238.3 1011.26 235.55 1003.34 230.05C995.417 224.55 989.44 217.07 985.407 207.61C981.447 198.15 979.467 187.48 979.467 175.6C979.467 163.72 981.447 153.05 985.407 143.59C989.367 134.13 995.197 126.65 1002.9 121.15C1010.6 115.65 1020.09 112.9 1031.39 112.9C1042.75 112.9 1052.65 115.613 1061.09 121.04C1069.52 126.467 1076.05 133.91 1080.67 143.37C1085.36 152.757 1087.71 163.5 1087.71 175.6C1087.71 187.48 1085.4 198.15 1080.78 207.61C1076.23 217.07 1069.85 224.55 1061.64 230.05C1053.42 235.55 1043.85 238.3 1032.93 238.3ZM974.407 287.8V116.2H1000.81V197.6H1004.55V287.8H974.407ZM1028.09 211.68C1034.54 211.68 1039.82 210.067 1043.93 206.84C1048.03 203.613 1051.08 199.287 1053.06 193.86C1055.04 188.36 1056.03 182.273 1056.03 175.6C1056.03 169 1055 162.987 1052.95 157.56C1050.89 152.06 1047.7 147.697 1043.38 144.47C1039.12 141.17 1033.66 139.52 1026.99 139.52C1020.75 139.52 1015.69 141.023 1011.81 144.03C1007.99 147.037 1005.21 151.253 1003.45 156.68C1001.69 162.107 1000.81 168.413 1000.81 175.6C1000.81 182.787 1001.69 189.093 1003.45 194.52C1005.21 199.947 1008.07 204.163 1012.03 207.17C1016.06 210.177 1021.41 211.68 1028.09 211.68ZM1133.91 238.3C1125.41 238.3 1118.18 236.687 1112.24 233.46C1106.38 230.16 1101.9 225.797 1098.82 220.37C1095.82 214.87 1094.31 208.82 1094.31 202.22C1094.31 196.72 1095.16 191.697 1096.84 187.15C1098.53 182.603 1101.24 178.607 1104.98 175.16C1108.8 171.64 1113.89 168.707 1120.27 166.36C1124.67 164.747 1129.92 163.317 1136 162.07C1142.09 160.823 1148.98 159.65 1156.68 158.55C1164.38 157.377 1172.85 156.093 1182.09 154.7L1171.31 160.64C1171.31 153.6 1169.63 148.43 1166.25 145.13C1162.88 141.83 1157.23 140.18 1149.31 140.18C1144.91 140.18 1140.33 141.243 1135.56 143.37C1130.8 145.497 1127.46 149.273 1125.55 154.7L1098.49 146.12C1101.5 136.293 1107.15 128.3 1115.43 122.14C1123.72 115.98 1135.01 112.9 1149.31 112.9C1159.8 112.9 1169.11 114.513 1177.25 117.74C1185.39 120.967 1191.55 126.54 1195.73 134.46C1198.08 138.86 1199.47 143.26 1199.91 147.66C1200.35 152.06 1200.57 156.973 1200.57 162.4V235H1174.39V210.58L1178.13 215.64C1172.34 223.633 1166.07 229.427 1159.32 233.02C1152.65 236.54 1144.18 238.3 1133.91 238.3ZM1140.29 214.76C1145.79 214.76 1150.41 213.807 1154.15 211.9C1157.97 209.92 1160.97 207.683 1163.17 205.19C1165.45 202.697 1166.99 200.607 1167.79 198.92C1169.33 195.693 1170.21 191.953 1170.43 187.7C1170.73 183.373 1170.87 179.78 1170.87 176.92L1179.67 179.12C1170.8 180.587 1163.61 181.833 1158.11 182.86C1152.61 183.813 1148.18 184.693 1144.8 185.5C1141.43 186.307 1138.46 187.187 1135.89 188.14C1132.96 189.313 1130.58 190.597 1128.74 191.99C1126.98 193.31 1125.66 194.777 1124.78 196.39C1123.98 198.003 1123.57 199.8 1123.57 201.78C1123.57 204.493 1124.23 206.84 1125.55 208.82C1126.95 210.727 1128.89 212.193 1131.38 213.22C1133.88 214.247 1136.85 214.76 1140.29 214.76ZM1226.69 287.8L1249.57 224.88L1250.01 243.36L1198.31 116.2H1229.33L1264.09 206.18H1257.05L1291.59 116.2H1321.51L1254.41 287.8H1226.69ZM1313.2 235V205.08H1343.12V235H1313.2Z" fill="white"/>
<defs>
<linearGradient id="paint0_linear_2058_8" x1="233.418" y1="258.61" x2="233.418" y2="31" gradientUnits="userSpaceOnUse">
<stop stop-color="white"/>
<stop offset="1" stop-color="white" stop-opacity="0.5"/>
</linearGradient>
<linearGradient id="paint1_linear_2058_8" x1="280" y1="77.4904" x2="2.47778" y2="77.4904" gradientUnits="userSpaceOnUse">
<stop stop-color="white"/>
<stop offset="1" stop-color="white" stop-opacity="0.5"/>
</linearGradient>
<linearGradient id="paint2_linear_2058_8" x1="141.734" y1="323.502" x2="55.2796" y2="29.8982" gradientUnits="userSpaceOnUse">
<stop stop-color="white" stop-opacity="0.5"/>
<stop offset="1" stop-color="white"/>
</linearGradient>
</defs>
</svg>
