<svg width="1753" height="384" viewBox="0 0 1753 384" fill="none" xmlns="http://www.w3.org/2000/svg">
<path d="M153.6 288C138.667 290.8 124 292 109.6 291.6C95.3333 291.333 82.5333 288.867 71.2 284.2C60 279.4 51.4667 271.733 45.6 261.2C40.2667 251.333 37.4667 241.333 37.2 231.2C36.9333 220.933 36.8 209.333 36.8 196.4V12H91.2V193.2C91.2 201.6 91.2667 209.2 91.4 216C91.6667 222.667 93.0667 228 95.6 232C100.4 239.6 108.067 243.733 118.6 244.4C129.133 245.067 140.8 244.533 153.6 242.8V288ZM2.83122e-07 114V72H153.6V114H2.83122e-07ZM267.216 294C245.482 294 226.416 289.133 210.016 279.4C193.616 269.667 180.816 256.267 171.616 239.2C162.549 222 158.016 202.267 158.016 180C158.016 157.467 162.682 137.667 172.016 120.6C181.349 103.4 194.216 90 210.616 80.4C227.016 70.8 245.882 66 267.216 66C288.949 66 308.016 70.8667 324.416 80.6C340.949 90.3333 353.816 103.8 363.016 121C372.216 138.067 376.816 157.733 376.816 180C376.816 202.4 372.149 222.2 362.816 239.4C353.616 256.467 340.749 269.867 324.216 279.6C307.816 289.2 288.816 294 267.216 294ZM267.216 243.2C284.682 243.2 297.682 237.333 306.216 225.6C314.882 213.733 319.216 198.533 319.216 180C319.216 160.8 314.816 145.467 306.016 134C297.349 122.533 284.416 116.8 267.216 116.8C255.349 116.8 245.616 119.467 238.016 124.8C230.416 130.133 224.749 137.533 221.016 147C217.416 156.467 215.616 167.467 215.616 180C215.616 199.333 219.949 214.733 228.616 226.2C237.416 237.533 250.282 243.2 267.216 243.2ZM481.197 294.4C464.264 294.4 450.464 291.533 439.797 285.8C429.13 280.067 420.797 272.8 414.797 264C408.93 255.2 404.73 246.067 402.197 236.6C399.664 227 398.13 218.267 397.597 210.4C397.064 202.533 396.797 196.8 396.797 193.2V72H451.997V174C451.997 178.933 452.264 185.267 452.797 193C453.33 200.6 454.997 208.267 457.797 216C460.597 223.733 465.13 230.2 471.397 235.4C477.797 240.6 486.797 243.2 498.397 243.2C503.064 243.2 508.064 242.467 513.397 241C518.73 239.533 523.73 236.733 528.397 232.6C533.064 228.333 536.864 222.133 539.797 214C542.864 205.733 544.397 194.933 544.397 181.6L575.597 196.4C575.597 213.467 572.13 229.467 565.197 244.4C558.264 259.333 547.797 271.4 533.797 280.6C519.93 289.8 502.397 294.4 481.197 294.4ZM551.197 288V216.4H544.397V72H599.197V288H551.197ZM730.294 294C707.894 294 688.694 289 672.694 279C656.694 269 644.427 255.4 635.894 238.2C627.36 221 623.094 201.6 623.094 180C623.094 158.133 627.494 138.6 636.294 121.4C645.227 104.2 657.76 90.6667 673.894 80.8C690.027 70.9333 709.094 66 731.094 66C756.56 66 777.894 72.4667 795.094 85.4C812.427 98.2 823.494 115.733 828.294 138L773.894 152.4C770.694 141.2 765.094 132.467 757.094 126.2C749.227 119.933 740.294 116.8 730.294 116.8C718.827 116.8 709.427 119.6 702.094 125.2C694.76 130.667 689.36 138.2 685.894 147.8C682.427 157.267 680.694 168 680.694 180C680.694 198.8 684.827 214.067 693.094 225.8C701.494 237.4 713.894 243.2 730.294 243.2C742.56 243.2 751.894 240.4 758.294 234.8C764.694 229.2 769.494 221.2 772.694 210.8L828.294 222.4C822.16 245.333 810.56 263 793.494 275.4C776.427 287.8 755.36 294 730.294 294ZM995.497 288V186C995.497 181.067 995.23 174.8 994.697 167.2C994.164 159.467 992.497 151.733 989.697 144C986.897 136.267 982.297 129.8 975.897 124.6C969.63 119.4 960.697 116.8 949.097 116.8C944.43 116.8 939.43 117.533 934.097 119C928.764 120.467 923.764 123.333 919.097 127.6C914.43 131.733 910.564 137.867 907.497 146C904.564 154.133 903.097 164.933 903.097 178.4L871.897 163.6C871.897 146.533 875.364 130.533 882.297 115.6C889.23 100.667 899.63 88.6 913.497 79.4C927.497 70.2 945.097 65.6 966.297 65.6C983.23 65.6 997.03 68.4667 1007.7 74.2C1018.36 79.9333 1026.63 87.2 1032.5 96C1038.5 104.8 1042.76 114 1045.3 123.6C1047.83 133.067 1049.36 141.733 1049.9 149.6C1050.43 157.467 1050.7 163.2 1050.7 166.8V288H995.497ZM847.897 288V-1.14441e-05H896.297V148H903.097V288H847.897ZM1188.59 294C1167.13 294 1149.19 289 1134.79 279C1120.39 269 1109.53 255.4 1102.19 238.2C1094.99 221 1091.39 201.6 1091.39 180C1091.39 158.4 1094.99 139 1102.19 121.8C1109.39 104.6 1119.99 91 1133.99 81C1147.99 71 1165.26 66 1185.79 66C1206.46 66 1224.46 70.9333 1239.79 80.8C1255.13 90.6667 1266.99 104.2 1275.39 121.4C1283.93 138.467 1288.19 158 1288.19 180C1288.19 201.6 1283.99 221 1275.59 238.2C1267.33 255.4 1255.73 269 1240.79 279C1225.86 289 1208.46 294 1188.59 294ZM1082.19 384V72H1130.19V220H1136.99V384H1082.19ZM1179.79 245.6C1191.53 245.6 1201.13 242.667 1208.59 236.8C1216.06 230.933 1221.59 223.067 1225.19 213.2C1228.79 203.2 1230.59 192.133 1230.59 180C1230.59 168 1228.73 157.067 1224.99 147.2C1221.26 137.2 1215.46 129.267 1207.59 123.4C1199.86 117.4 1189.93 114.4 1177.79 114.4C1166.46 114.4 1157.26 117.133 1150.19 122.6C1143.26 128.067 1138.19 135.733 1134.99 145.6C1131.79 155.467 1130.19 166.933 1130.19 180C1130.19 193.067 1131.79 204.533 1134.99 214.4C1138.19 224.267 1143.39 231.933 1150.59 237.4C1157.93 242.867 1167.66 245.6 1179.79 245.6ZM1372.2 294C1356.74 294 1343.6 291.067 1332.8 285.2C1322.14 279.2 1314 271.267 1308.4 261.4C1302.94 251.4 1300.2 240.4 1300.2 228.4C1300.2 218.4 1301.74 209.267 1304.8 201C1307.87 192.733 1312.8 185.467 1319.6 179.2C1326.54 172.8 1335.8 167.467 1347.4 163.2C1355.4 160.267 1364.94 157.667 1376 155.4C1387.07 153.133 1399.6 151 1413.6 149C1427.6 146.867 1443 144.533 1459.8 142L1440.2 152.8C1440.2 140 1437.14 130.6 1431 124.6C1424.87 118.6 1414.6 115.6 1400.2 115.6C1392.2 115.6 1383.87 117.533 1375.2 121.4C1366.54 125.267 1360.47 132.133 1357 142L1307.8 126.4C1313.27 108.533 1323.54 94 1338.6 82.8C1353.67 71.6 1374.2 66 1400.2 66C1419.27 66 1436.2 68.9333 1451 74.8C1465.8 80.6666 1477 90.8 1484.6 105.2C1488.87 113.2 1491.4 121.2 1492.2 129.2C1493 137.2 1493.4 146.133 1493.4 156V288H1445.8V243.6L1452.6 252.8C1442.07 267.333 1430.67 277.867 1418.4 284.4C1406.27 290.8 1390.87 294 1372.2 294ZM1383.8 251.2C1393.8 251.2 1402.2 249.467 1409 246C1415.94 242.4 1421.4 238.333 1425.4 233.8C1429.54 229.267 1432.34 225.467 1433.8 222.4C1436.6 216.533 1438.2 209.733 1438.6 202C1439.14 194.133 1439.4 187.6 1439.4 182.4L1455.4 186.4C1439.27 189.067 1426.2 191.333 1416.2 193.2C1406.2 194.933 1398.14 196.533 1392 198C1385.87 199.467 1380.47 201.067 1375.8 202.8C1370.47 204.933 1366.14 207.267 1362.8 209.8C1359.6 212.2 1357.2 214.867 1355.6 217.8C1354.14 220.733 1353.4 224 1353.4 227.6C1353.4 232.533 1354.6 236.8 1357 240.4C1359.54 243.867 1363.07 246.533 1367.6 248.4C1372.14 250.267 1377.54 251.2 1383.8 251.2ZM1540.9 384L1582.5 269.6L1583.3 303.2L1489.3 72H1545.7L1608.9 235.6H1596.1L1658.9 72H1713.3L1591.3 384H1540.9ZM1698.19 288V233.6H1752.59V288H1698.19Z" fill="white"/>
</svg>
